# xmcd CD database file
#
# Track frame offsets:
#	150
#	16865
#	36237
#	51968
#	68421
#	87452
#	105184
#	120327
#	137555
#	154822
#	172390
#	193124
#	210010
#	223204
#	242076
#
# Disc length: 3444 seconds
#
# Revision: 1
# Processed by: cddbd v1.5.2PL0 Copyright (c) Steve Scherf et al.
# Submitted via: CDex 1.51
#
DISCID=c90d720f
DTITLE=John Tucker's Yacht Club Jazz Band - Rare Collectable Jazz from the Archive
DYEAR=1976
DGENRE=Jazz
TTITLE0=Jazz Me Blues
TTITLE1=Sugar
TTITLE2=From Monday On
TTITLE3=No Regrets
TTITLE4=My Honey's Lovin' Arms
TTITLE5=It Happened In Monterey
TTITLE6=Tia Juana
TTITLE7=Keeping Out Of Mischief Now
TTITLE8=Clementine (From New Orleans)
TTITLE9=Back In Your Own Backyard
TTITLE10=Take Your Tomorrows
TTITLE11=The Jolly Song
TTITLE12=If I Could Be With You
TTITLE13=Milkman's Matinee
TTITLE14=Can't We Be Friends
EXTD=YEAR: 1976
EXTT0=
EXTT1=
EXTT2=
EXTT3=
EXTT4=
EXTT5=
EXTT6=
EXTT7=
EXTT8=
EXTT9=
EXTT10=
EXTT11=
EXTT12=
EXTT13=
EXTT14=
PLAYORDER=
